<svg width="688" height="684" viewBox="0 0 688 684" fill="none" xmlns="http://www.w3.org/2000/svg">
<g clip-path="url(#clip0_168_14)">
<path d="M202.379 2.13718C192.934 5.46708 185 10.3953 180.34 16.1227C175.68 21.5838 169.509 33.971 134.624 106.829C119.889 137.597 106.288 165.702 104.399 169.431C102.51 173.027 88.9086 201.265 74.1739 232.033C59.4391 262.801 46.9712 288.508 46.4675 289.307C45.9637 289.973 35.3849 311.951 23.0429 337.924L0.5 385.208V396.53C0.5 409.983 3.01876 416.776 11.9604 426.233C18.0054 432.759 24.0505 436.222 42.0596 443.548C54.6534 448.61 115.859 473.517 127.698 478.446C131.854 480.177 139.914 483.507 145.707 485.771C155.908 489.9 156.16 490.167 155.404 493.763C154.019 500.689 161.071 509.747 167.746 509.747C169.383 509.747 169.635 519.869 170.139 578.609C170.643 646.405 170.643 647.737 173.413 654.131C177.947 664.653 183.992 671.313 193.941 676.907C202.505 681.702 203.89 681.969 219.633 683.168C228.826 683.834 328.821 684.1 442.669 683.967L649.082 683.567L656.638 680.37C670.995 674.377 680.315 664.92 685.352 651.201C687.241 646.139 687.493 637.748 687.493 574.48C687.493 493.896 688.123 498.558 677.418 496.294C674.27 495.761 568.104 495.228 441.284 495.228C314.464 495.228 205.276 495.095 198.601 495.095C187.518 495.095 186.385 494.829 185.629 492.431C185.251 490.966 183.11 488.036 181.095 485.771L177.191 481.775L212.832 408.118C232.352 367.76 255.147 320.475 263.459 303.293C271.645 286.111 285.12 258.14 293.306 241.357C301.492 224.441 316.731 192.74 327.31 170.763C337.889 148.786 353.253 116.952 361.439 99.9029C369.751 82.8538 376.426 67.8027 376.426 66.2044C376.426 61.5425 371.136 57.5466 357.409 51.9524C231.597 0.272442 232.604 0.672028 220.262 0.139244C212.076 -0.260343 207.794 0.139244 202.379 2.13718Z" fill="url(#paint0_linear_168_14)"/>
</g>
<defs>
<linearGradient id="paint0_linear_168_14" x1="344" y1="0" x2="344" y2="684" gradientUnits="userSpaceOnUse">
<stop stop-color="#D9D9D9"/>
<stop offset="1" stop-color="#494949"/>
</linearGradient>
<clipPath id="clip0_168_14">
<rect width="687" height="684" fill="white" transform="translate(0.5)"/>
</clipPath>
</defs>
</svg>
