<svg width="687" height="684" viewBox="0 0 687 684" fill="none" xmlns="http://www.w3.org/2000/svg">
<path d="M201.879 2.13716C192.434 5.46706 184.5 10.3953 179.84 16.1227C175.18 21.5838 169.009 33.971 134.124 106.829C119.389 137.597 105.788 165.702 103.899 169.431C102.01 173.027 88.4086 201.265 73.6739 232.033C58.9391 262.801 46.4712 288.508 45.9675 289.307C45.4637 289.973 34.8849 311.951 22.5429 337.924L0 385.208V396.53C0 409.983 2.51876 416.776 11.4604 426.233C17.5054 432.759 23.5505 436.222 41.5596 443.548C54.1534 448.61 115.359 473.517 127.198 478.446C131.354 480.177 139.414 483.507 145.207 485.771C155.408 489.9 155.66 490.167 154.904 493.763C153.519 500.689 160.571 509.747 167.246 509.747C168.883 509.747 169.135 519.869 169.639 578.609C170.143 646.405 170.143 647.737 172.913 654.131C177.447 664.653 183.492 671.313 193.441 676.907C202.005 681.702 203.39 681.969 219.133 683.168C228.326 683.834 328.321 684.1 442.169 683.967L648.582 683.567L656.138 680.37C670.495 674.377 679.815 664.92 684.852 651.201C686.741 646.139 686.993 637.748 686.993 574.48C686.993 493.896 687.623 498.558 676.918 496.294C673.77 495.761 567.604 495.228 440.784 495.228C313.964 495.228 204.776 495.095 198.101 495.095C187.018 495.095 185.885 494.829 185.129 492.431C184.751 490.966 182.61 488.036 180.595 485.771L176.691 481.775L212.332 408.118C231.852 367.76 254.647 320.475 262.959 303.293C271.145 286.111 284.62 258.14 292.806 241.357C300.992 224.441 316.231 192.74 326.81 170.763C337.389 148.786 352.753 116.952 360.939 99.9029C369.251 82.8538 375.926 67.8027 375.926 66.2044C375.926 61.5425 370.636 57.5466 356.909 51.9524C231.097 0.272417 232.104 0.672005 219.762 0.139221C211.576 -0.260366 207.294 0.139221 201.879 2.13716Z" fill="#D4AF37"/>
</svg>
