<svg width="100" height="100" viewBox="0 0 100 100" fill="none" xmlns="http://www.w3.org/2000/svg">
<path d="M48.4277 0.313168C47.5488 0.703793 46.7285 1.46551 46.2598 2.38348C45.9473 2.98895 45.8887 3.53582 45.8887 5.82098V8.51629L43.6621 8.84832C30.2832 10.86 18.5645 19.4929 12.5879 31.739C10.6348 35.7429 9.50195 39.3561 8.83789 43.6725L8.48633 45.8991H5.79102C3.52539 45.8991 2.97852 45.9577 2.37305 46.2702C-0.791016 47.8913 -0.791016 52.11 2.37305 53.7311C2.97852 54.0436 3.52539 54.1022 5.81055 54.1022H8.50586L8.83789 56.3288C10.1465 65.0788 14.1895 73.0085 20.5957 79.3952C27.0605 85.86 35.3223 90.0202 44.0918 91.2116L45.8887 91.4655V94.1804C45.8887 96.4655 45.9473 97.0124 46.2598 97.6179C47.6074 100.255 51.0059 100.801 52.959 98.7116C53.8965 97.696 54.0918 96.9343 54.0918 94.0632V91.446L55.3223 91.3093C58.7012 90.9382 64.0723 89.3952 67.4902 87.7936C80.2246 81.8561 89.3652 69.5319 91.2012 55.9186L91.4551 54.1022H94.1113C96.2793 54.1022 96.9043 54.0241 97.5488 53.7311C100.752 52.2468 100.791 47.9108 97.6074 46.2702C97.0019 45.9577 96.4551 45.8991 94.1699 45.8991H91.4551L91.2012 44.1022C90.0098 35.3132 85.8691 27.071 79.3848 20.6061C74.5996 15.8015 69.2676 12.5202 62.9785 10.4499C60.498 9.62957 57.4512 8.92645 55.2246 8.67254L54.0918 8.55536V5.87957C54.0918 3.71161 54.0137 3.08661 53.7207 2.44207C52.7832 0.430355 50.4004 -0.546207 48.4277 0.313168ZM46.0644 17.8132C46.6113 19.6686 48.0762 20.7624 50.0098 20.7624C51.9043 20.7624 53.3496 19.6491 53.9355 17.7155L54.1699 16.9733L55.1465 17.0905C55.6934 17.1686 57.1191 17.4811 58.3105 17.7741C68.623 20.4108 77.041 27.9108 81.0644 38.028C81.709 39.6686 82.6855 43.2819 82.9004 44.8444L83.0176 45.821L82.1777 46.0749C80.3223 46.6218 79.209 48.1061 79.209 50.0007C79.209 51.8952 80.3223 53.3796 82.1777 53.9265L83.0176 54.1804L82.9004 55.1569C82.6855 56.7194 81.709 60.3327 81.0644 61.9733C77.5684 70.7819 70.7715 77.5788 61.9629 81.0749C60.3223 81.7194 56.709 82.696 55.166 82.9108L54.1894 83.028L53.8574 82.071C53.1738 80.1765 51.8848 79.2194 49.9902 79.2194C48.0762 79.2194 46.6113 80.3327 46.0644 82.1882L45.8105 83.0475L44.9316 82.9108C43.3301 82.696 40.0098 81.8171 38.2715 81.153C29.4238 77.7741 22.4512 70.86 18.916 61.9733C18.2715 60.3327 17.2949 56.7194 17.0801 55.1569L16.9629 54.1804L17.8027 53.9265C18.9746 53.5749 19.6191 53.0475 20.2441 51.9929C21.5918 49.7077 20.4004 46.8561 17.8027 46.0749L16.9629 45.821L17.0801 44.8444C17.2949 43.2819 18.2715 39.6882 18.916 38.028C20.7129 33.5358 23.1738 29.8054 26.5723 26.3874C31.084 21.8952 36.9824 18.7116 43.2129 17.403C45.8105 16.8561 45.791 16.8561 46.0644 17.8132Z" fill="url(#paint0_linear_170_9)"/>
<path d="M47.5488 29.2981C44.4238 29.7083 40.9863 30.9778 38.3301 32.7551C36.9238 33.6926 34.5801 35.8801 33.4863 37.3059C30.6543 41.0169 29.2285 45.2942 29.2285 50.0012C29.2285 55.9192 31.4355 61.0364 35.752 65.138C41.7285 70.802 50.752 72.4036 58.2129 69.1223C65.2441 66.0559 69.873 59.6692 70.7129 51.8958C71.1035 48.2825 70.4004 44.513 68.6621 40.9192C66.5723 36.6419 63.4473 33.4778 59.248 31.3684C55.752 29.6301 51.2598 28.8294 47.5488 29.2981Z" fill="url(#paint1_linear_170_9)"/>
<defs>
<linearGradient id="paint0_linear_170_9" x1="49.9866" y1="0.000328064" x2="49.9866" y2="99.9902" gradientUnits="userSpaceOnUse">
<stop stop-color="#D9D9D9"/>
<stop offset="1" stop-color="#494949"/>
</linearGradient>
<linearGradient id="paint1_linear_170_9" x1="50.0232" y1="29.1661" x2="50.0232" y2="70.8086" gradientUnits="userSpaceOnUse">
<stop stop-color="#D9D9D9"/>
<stop offset="1" stop-color="#494949"/>
</linearGradient>
</defs>
</svg>
