<svg width="50" height="48" viewBox="0 0 50 48" fill="none" xmlns="http://www.w3.org/2000/svg">
<mask id="mask0_168_2" style="mask-type:luminance" maskUnits="userSpaceOnUse" x="1" y="0" width="48" height="48">
<path d="M49 0H1V48H49V0Z" fill="white"/>
</mask>
<g mask="url(#mask0_168_2)">
<mask id="mask1_168_2" style="mask-type:luminance" maskUnits="userSpaceOnUse" x="1" y="0" width="48" height="48">
<path d="M49 0H1V48H49V0Z" fill="white"/>
</mask>
<g mask="url(#mask1_168_2)">
<path d="M49 0H1V48H49V0Z" fill="#D4AF37" fill-opacity="0.01"/>
<path d="M25 44C28.9556 44 32.8224 42.827 36.1114 40.6294C39.4004 38.4318 41.9638 35.3082 43.4776 31.6537C44.9913 27.9992 45.3874 23.9778 44.6157 20.0982C43.844 16.2186 41.9392 12.6549 39.1421 9.85787C36.3451 7.06082 32.7814 5.15601 28.9018 4.3843C25.0222 3.6126 21.0009 4.00867 17.3463 5.52242C13.6918 7.03617 10.5682 9.59962 8.37061 12.8886C6.17298 16.1776 5 20.0444 5 24C5 29.3043 7.10714 34.3914 10.8579 38.1421C12.715 39.9993 14.9198 41.4725 17.3463 42.4776C19.7728 43.4827 22.3736 44 25 44Z" stroke="url(#paint0_linear_168_2)" stroke-width="3.5" stroke-linecap="round" stroke-linejoin="round"/>
<path d="M25 12C21.8174 12 18.7652 13.2643 16.5147 15.5147C14.2643 17.7652 13 20.8174 13 24" stroke="url(#paint1_linear_168_2)" stroke-width="3.5" stroke-linecap="round" stroke-linejoin="round"/>
</g>
</g>
<defs>
<linearGradient id="paint0_linear_168_2" x1="25" y1="4" x2="25" y2="44" gradientUnits="userSpaceOnUse">
<stop stop-color="#D9D9D9"/>
<stop offset="1" stop-color="#494949"/>
</linearGradient>
<linearGradient id="paint1_linear_168_2" x1="19" y1="12" x2="19" y2="24" gradientUnits="userSpaceOnUse">
<stop stop-color="#D9D9D9"/>
<stop offset="1" stop-color="#494949"/>
</linearGradient>
</defs>
</svg>
