<svg width="48" height="48" viewBox="0 0 48 48" fill="none" xmlns="http://www.w3.org/2000/svg">
<g clip-path="url(#clip0_142_67)">
<path d="M48 0H0V48H48V0Z" fill="white" fill-opacity="0.01"/>
<path d="M24 44C27.9556 44 31.8224 42.827 35.1114 40.6294C38.4004 38.4318 40.9638 35.3082 42.4776 31.6537C43.9913 27.9992 44.3874 23.9778 43.6157 20.0982C42.844 16.2186 40.9392 12.6549 38.1421 9.85787C35.3451 7.06082 31.7814 5.15601 27.9018 4.3843C24.0222 3.6126 20.0009 4.00867 16.3463 5.52242C12.6918 7.03617 9.56824 9.59962 7.37061 12.8886C5.17298 16.1776 4 20.0444 4 24C4 29.3043 6.10714 34.3914 9.85786 38.1421C11.715 39.9993 13.9198 41.4725 16.3463 42.4776C18.7728 43.4827 21.3736 44 24 44Z" stroke="#D7C68A" stroke-width="3.5" stroke-linecap="round" stroke-linejoin="round"/>
<path d="M24 12C20.8174 12 17.7652 13.2643 15.5147 15.5147C13.2643 17.7652 12 20.8174 12 24" stroke="#D7C68A" stroke-width="3.5" stroke-linecap="round" stroke-linejoin="round"/>
</g>
<defs>
<clipPath id="clip0_142_67">
<rect width="48" height="48" fill="white"/>
</clipPath>
</defs>
</svg>
